<mxfile host="Electron" modified="2023-12-28T14:02:11.483Z" agent="Mozilla/5.0 (Windows NT 10.0; Win64; x64) AppleWebKit/537.36 (KHTML, like Gecko) draw.io/22.1.15 Chrome/120.0.6099.109 Electron/28.1.0 Safari/537.36" etag="a_yW66CHbgwgf_aaPP2k" version="22.1.15" type="device">
  <diagram name="Σελίδα-1" id="WmLbLtrNvKMvROQMuqzj">
    <mxGraphModel dx="1434" dy="844" grid="0" gridSize="10" guides="1" tooltips="1" connect="1" arrows="1" fold="1" page="1" pageScale="1" pageWidth="827" pageHeight="1169" math="0" shadow="0">
      <root>
        <mxCell id="0" />
        <mxCell id="1" parent="0" />
        <mxCell id="qDuLNW8ioRjtiaSdt88N-1" value="" style="whiteSpace=wrap;html=1;aspect=fixed;sketch=1;hachureGap=4;jiggle=2;curveFitting=1;fontFamily=Architects Daughter;fontSource=https%3A%2F%2Ffonts.googleapis.com%2Fcss%3Ffamily%3DArchitects%2BDaughter;fontSize=20;" vertex="1" parent="1">
          <mxGeometry x="192" y="57" width="306" height="306" as="geometry" />
        </mxCell>
        <mxCell id="qDuLNW8ioRjtiaSdt88N-2" value="&lt;font style=&quot;font-size: 30px;&quot;&gt;Stack&lt;/font&gt;" style="text;html=1;strokeColor=none;fillColor=none;align=center;verticalAlign=middle;whiteSpace=wrap;rounded=0;fontSize=20;fontFamily=Architects Daughter;fontStyle=1" vertex="1" parent="1">
          <mxGeometry x="312" y="20" width="60" height="30" as="geometry" />
        </mxCell>
        <mxCell id="qDuLNW8ioRjtiaSdt88N-3" value="variable 2" style="text;html=1;strokeColor=none;fillColor=none;align=center;verticalAlign=middle;whiteSpace=wrap;rounded=0;fontSize=20;fontFamily=Architects Daughter;" vertex="1" parent="1">
          <mxGeometry x="217" y="217" width="106" height="30" as="geometry" />
        </mxCell>
        <mxCell id="qDuLNW8ioRjtiaSdt88N-4" value="variable 1" style="text;html=1;strokeColor=none;fillColor=none;align=center;verticalAlign=middle;whiteSpace=wrap;rounded=0;fontSize=20;fontFamily=Architects Daughter;" vertex="1" parent="1">
          <mxGeometry x="219" y="282" width="90" height="30" as="geometry" />
        </mxCell>
        <mxCell id="qDuLNW8ioRjtiaSdt88N-5" value="value" style="rounded=1;whiteSpace=wrap;html=1;sketch=1;hachureGap=4;jiggle=2;curveFitting=1;fontFamily=Architects Daughter;fontSource=https%3A%2F%2Ffonts.googleapis.com%2Fcss%3Ffamily%3DArchitects%2BDaughter;fontSize=20;fillColor=#FFF4C3;" vertex="1" parent="1">
          <mxGeometry x="349" y="213" width="97" height="46" as="geometry" />
        </mxCell>
        <mxCell id="qDuLNW8ioRjtiaSdt88N-6" value="value" style="rounded=1;whiteSpace=wrap;html=1;sketch=1;hachureGap=4;jiggle=2;curveFitting=1;fontFamily=Architects Daughter;fontSource=https%3A%2F%2Ffonts.googleapis.com%2Fcss%3Ffamily%3DArchitects%2BDaughter;fontSize=20;fillColor=#FFF4C3;" vertex="1" parent="1">
          <mxGeometry x="349" y="274" width="97" height="46" as="geometry" />
        </mxCell>
        <mxCell id="qDuLNW8ioRjtiaSdt88N-7" value="Get Value from Variable" style="swimlane;whiteSpace=wrap;html=1;sketch=1;hachureGap=4;jiggle=2;curveFitting=1;fontFamily=Architects Daughter;fontSource=https%3A%2F%2Ffonts.googleapis.com%2Fcss%3Ffamily%3DArchitects%2BDaughter;fontSize=20;fillColor=#CCCCFF;" vertex="1" parent="1">
          <mxGeometry x="29" y="393" width="536" height="87" as="geometry" />
        </mxCell>
        <mxCell id="qDuLNW8ioRjtiaSdt88N-8" value="VariableName" style="text;html=1;strokeColor=none;fillColor=none;align=center;verticalAlign=middle;whiteSpace=wrap;rounded=0;fontSize=20;fontFamily=Architects Daughter;" vertex="1" parent="qDuLNW8ioRjtiaSdt88N-7">
          <mxGeometry x="10" y="40" width="508" height="30" as="geometry" />
        </mxCell>
        <mxCell id="qDuLNW8ioRjtiaSdt88N-9" value="int void;" style="text;html=1;strokeColor=none;fillColor=none;align=center;verticalAlign=middle;whiteSpace=wrap;rounded=0;fontSize=20;fontFamily=Architects Daughter;" vertex="1" parent="1">
          <mxGeometry x="97" y="539.5" width="257" height="63" as="geometry" />
        </mxCell>
        <mxCell id="qDuLNW8ioRjtiaSdt88N-10" value="int studentName;" style="text;html=1;strokeColor=none;fillColor=none;align=center;verticalAlign=middle;whiteSpace=wrap;rounded=0;fontSize=20;fontFamily=Architects Daughter;" vertex="1" parent="1">
          <mxGeometry x="390" y="551" width="257" height="30" as="geometry" />
        </mxCell>
        <mxCell id="qDuLNW8ioRjtiaSdt88N-11" value="" style="sketch=0;html=1;aspect=fixed;strokeColor=none;shadow=0;align=center;fillColor=#2D9C5E;verticalAlign=top;labelPosition=center;verticalLabelPosition=bottom;shape=mxgraph.gcp2.check;hachureGap=4;jiggle=2;curveFitting=1;fontFamily=Architects Daughter;fontSource=https%3A%2F%2Ffonts.googleapis.com%2Fcss%3Ffamily%3DArchitects%2BDaughter;fontSize=20;" vertex="1" parent="1">
          <mxGeometry x="597" y="545" width="39" height="31.2" as="geometry" />
        </mxCell>
        <mxCell id="qDuLNW8ioRjtiaSdt88N-12" value="" style="image;aspect=fixed;html=1;points=[];align=center;fontSize=12;image=img/lib/azure2/general/Globe_Error.svg;sketch=1;hachureGap=4;jiggle=2;curveFitting=1;fontFamily=Architects Daughter;fontSource=https%3A%2F%2Ffonts.googleapis.com%2Fcss%3Ffamily%3DArchitects%2BDaughter;" vertex="1" parent="1">
          <mxGeometry x="97" y="551" width="33.94" height="40" as="geometry" />
        </mxCell>
      </root>
    </mxGraphModel>
  </diagram>
</mxfile>
